HIERARCHY
ROOT Hips
{
	OFFSET 0.000000 0.000000 0.000000
	CHANNELS 6 Xposition Yposition Zposition Zrotation Yrotation Xrotation 
	JOINT LHipJoint
	{
		OFFSET 0.000000 0.000000 0.000000
		CHANNELS 3 Zrotation Yrotation Xrotation
		JOINT LeftUpLeg
		{
			OFFSET 8.178360 -10.767780 5.035740
			CHANNELS 3 Zrotation Yrotation Xrotation
			JOINT LeftLeg
			{
				OFFSET 14.688660 -40.356780 0.000000
				CHANNELS 3 Zrotation Yrotation Xrotation
				JOINT LeftFoot
				{
					OFFSET 15.373200 -42.237540 0.000000
					CHANNELS 3 Zrotation Yrotation Xrotation
					JOINT LeftToeBase
					{
						OFFSET 0.945840 -2.598660 13.935300
						CHANNELS 3 Zrotation Yrotation Xrotation
						End Site
						{
							OFFSET 0.000000 0.000000 0.000000
						}
					}
				}
			}
		}
	}
	JOINT RHipJoint
	{
		OFFSET 0.000000 0.000000 0.000000
		CHANNELS 3 Zrotation Yrotation Xrotation
		JOINT RightUpLeg
		{
			OFFSET -7.833120 -10.767780 5.035740
			CHANNELS 3 Zrotation Yrotation Xrotation
			JOINT RightLeg
			{
				OFFSET -15.255180 -41.913300 0.000000
				CHANNELS 3 Zrotation Yrotation Xrotation
				JOINT RightFoot
				{
					OFFSET -15.409560 -42.337380 0.000000
					CHANNELS 3 Zrotation Yrotation Xrotation
					JOINT RightToeBase
					{
						OFFSET -0.988380 -2.715540 14.178900
						CHANNELS 3 Zrotation Yrotation Xrotation
						End Site
						{
							OFFSET 0.000000 0.000000 0.000000
						}
					}
				}
			}
		}
	}
	JOINT LowerBack
	{
		OFFSET 0.000000 0.000000 0.000000
		CHANNELS 3 Zrotation Yrotation Xrotation
		JOINT Spine
		{
			OFFSET 0.169620 12.213540 -1.160280
			CHANNELS 3 Zrotation Yrotation Xrotation
			JOINT Spine1
			{
				OFFSET 0.340320 12.293100 -0.256500
				CHANNELS 3 Zrotation Yrotation Xrotation
				JOINT Neck
				{
					OFFSET 0.000000 0.000000 0.000000
					CHANNELS 3 Zrotation Yrotation Xrotation
					JOINT Neck1
					{
						OFFSET -0.325020 10.477440 1.032120
						CHANNELS 3 Zrotation Yrotation Xrotation
						JOINT Head
						{
							OFFSET 0.624420 10.568160 -0.743820
							CHANNELS 3 Zrotation Yrotation Xrotation
							End Site
							{
								OFFSET 0.000000 0.000000 0.000000
							}
						}
					}
				}
				JOINT LeftShoulder
				{
					OFFSET 0.000000 0.000000 0.000000
					CHANNELS 3 Zrotation Yrotation Xrotation
					JOINT LeftArm
					{
						OFFSET 20.174460 7.205340 -1.867260
						CHANNELS 3 Zrotation Yrotation Xrotation
						JOINT LeftForeArm
						{
							OFFSET 29.898000 -0.000000 -0.000000
							CHANNELS 3 Zrotation Yrotation Xrotation
							JOINT LeftHand
							{
								OFFSET 20.901360 -0.000000 -0.000000
								CHANNELS 3 Zrotation Yrotation Xrotation
								JOINT LeftFingerBase
								{
									OFFSET 0.000000 0.000000 0.000000
									CHANNELS 3 Zrotation Yrotation Xrotation
									JOINT LeftHandIndex1
									{
										OFFSET 4.291560 -0.000000 -0.000000
										CHANNELS 3 Zrotation Yrotation Xrotation
										End Site
										{
											OFFSET 0.000000 0.000000 0.000000
										}
									}
								}
								JOINT LThumb
								{
									OFFSET 0.000000 0.000000 0.000000
									CHANNELS 3 Zrotation Yrotation Xrotation
									End Site
									{
										OFFSET 0.000000 0.000000 0.000000
									}
								}
							}
						}
					}
				}
				JOINT RightShoulder
				{
					OFFSET 0.000000 0.000000 0.000000
					CHANNELS 3 Zrotation Yrotation Xrotation
					JOINT RightArm
					{
						OFFSET -18.819600 8.244300 -2.427900
						CHANNELS 3 Zrotation Yrotation Xrotation
						JOINT RightForeArm
						{
							OFFSET -31.451400 -0.000000 -0.000000
							CHANNELS 3 Zrotation Yrotation Xrotation
							JOINT RightHand
							{
								OFFSET -20.665020 -0.000000 -0.000000
								CHANNELS 3 Zrotation Yrotation Xrotation
								JOINT RightFingerBase
								{
									OFFSET 0.000000 0.000000 0.000000
									CHANNELS 3 Zrotation Yrotation Xrotation
									JOINT RightHandIndex1
									{
										OFFSET -3.735180 -0.000000 -0.000000
										CHANNELS 3 Zrotation Yrotation Xrotation
										End Site
										{
											OFFSET 0.000000 0.000000 0.000000
										}
									}
								}
								JOINT RThumb
								{
									OFFSET 0.000000 0.000000 0.000000
									CHANNELS 3 Zrotation Yrotation Xrotation
									End Site
									{
										OFFSET 0.000000 0.000000 0.000000
									}
								}
							}
						}
					}
				}
			}
		}
	}
}
MOTION
Frames:	8
Frame Time:	0.0333333
-51.389022 107.219682 27.053304 2.081850 3.911567 0.957717 -0.393070 1.751712 1.917919 -26.202759 -6.816972 -6.145207 0.356717 7.322015 23.523711 2.664976 -10.409970 2.974995 0.285300 3.435100 9.492600 -1.630342 -1.918303 0.665891 12.660783 11.505642 -24.926239 -2.397151 -10.726439 30.671922 2.036818 -10.692278 3.821572 -0.033500 1.180700 -3.246100 -4.083874 -0.448711 5.226474 0.781368 -1.155212 -1.986945 5.010649 -0.250532 -3.152877 -7.723667 -2.926148 -12.997416 2.838340 -2.741927 15.434125 2.374800 -1.892400 10.791400 -7.327071 2.608055 -2.574248 -82.181898 -0.710152 24.181120 14.324518 -25.864466 -4.404687 -1.311672 -3.445078 5.531231 18.206205 22.592694 8.747400 -7.125000 0.000000 0.000000 -11.813100 57.088600 -3.532200 6.102244 -2.117258 -2.279712 81.387275 -1.953401 6.961381 -12.852158 19.694080 -3.073633 0.900471 -0.763744 10.710233 -13.099215 11.573869 -3.025100 7.125000 0.000000 0.000000 9.105700 -17.584600 6.005900 
-51.345288 107.222760 29.916870 1.748265 4.904309 1.391853 -0.497118 1.848031 2.064768 -25.632066 -6.304606 -4.493182 0.211130 6.927945 22.482163 2.879701 -11.483912 2.484489 0.239000 3.146100 8.685800 -1.353821 -1.892411 0.589500 11.341793 13.428375 -23.913842 -0.856058 -8.068725 22.360612 1.364240 -9.137501 9.359804 -0.071700 1.727500 -4.753000 -3.950005 -0.456209 4.947551 0.813151 -1.131801 -1.973430 5.095094 -0.268142 -2.957060 -7.949388 -3.166746 -13.191309 3.104106 -3.020311 15.106464 2.513100 -1.993000 10.715300 -7.295563 2.565901 -2.591056 -82.038259 -1.397661 24.439080 14.960217 -26.739030 -4.797574 -1.231751 -3.406804 5.199857 17.814075 22.312170 8.432600 -7.125000 0.000000 0.000000 -12.116200 56.665300 -3.500100 6.169744 -2.073139 -2.208069 81.099254 -1.384643 5.516698 -12.167816 18.658831 -2.753495 0.829856 -0.713332 11.776773 -12.397141 10.567826 -2.609700 7.125000 0.000000 0.000000 9.664200 -18.698800 6.143600 
-51.250428 107.124822 32.662794 1.797978 5.631793 1.608805 -0.520415 1.931568 2.138720 -25.646941 -5.947160 -2.681533 0.107281 6.596350 21.631241 2.992064 -12.091181 2.080810 0.254400 3.245500 8.962900 -1.198119 -1.862053 0.504573 9.780747 14.875403 -23.191741 -0.034533 -6.240525 17.113325 0.409740 -6.336742 13.217673 -0.440900 4.260600 -11.810900 -4.140387 -0.145738 4.481306 0.759859 -0.671292 -1.671760 5.118449 -0.121094 -1.913951 -8.185093 -3.586242 -13.243158 3.301691 -3.540502 14.278479 2.603000 -2.190500 10.318000 -7.222343 2.530526 -2.533327 -82.116598 -2.850560 24.739644 15.947915 -28.035649 -5.373206 -1.023246 -3.604303 3.359311 17.296158 24.238803 8.734100 -7.125000 0.000000 0.000000 -13.927500 58.594200 -4.687600 6.189461 -2.038749 -2.072978 80.926623 -0.146393 4.703978 -11.806976 18.073159 -2.587130 0.743297 -0.400629 12.552527 -11.221469 7.600265 -1.659900 7.125000 0.000000 0.000000 10.735900 -22.039300 6.026800 
-51.262134 106.938804 35.376072 1.359660 6.879884 1.737362 -0.481281 2.018235 2.196511 -25.108250 -6.194725 -1.012436 0.115869 6.521353 21.488334 3.109879 -12.551140 1.274243 0.189900 2.806400 7.740300 -1.200360 -1.829540 0.515409 9.263108 15.830157 -22.783663 0.264642 -5.684615 15.920013 -1.115174 0.024877 15.850860 -0.270100 3.343100 -9.235500 -3.790358 -0.124217 4.501147 0.762408 -0.600976 -1.548174 4.994779 -0.119181 -1.626899 -8.460712 -3.771168 -13.055779 3.551785 -3.750815 13.797791 2.770700 -2.267600 10.066500 -7.176126 2.516644 -2.521158 -82.109782 -3.154417 24.387485 16.637329 -28.949782 -5.847405 -0.905088 -3.491822 3.094595 16.437747 23.204099 7.940400 -7.125000 0.000000 0.000000 -14.267100 57.253000 -4.341800 6.161075 -2.003313 -2.006922 80.776465 0.528409 5.845197 -11.665175 17.843889 -2.523603 0.770831 -0.492791 12.530189 -11.562383 8.245869 -1.873500 7.125000 0.000000 0.000000 10.419200 -21.293700 6.022500 
-51.363150 106.673328 38.120142 1.235640 9.136718 1.922030 -0.401756 2.079237 2.217343 -24.922367 -7.191752 0.502089 0.232465 6.712254 22.119096 3.137059 -12.688550 0.931842 0.145200 2.455600 6.766600 -1.240385 -1.814959 0.568373 8.157268 17.156372 -22.065739 0.282192 -5.949019 17.022295 -2.293082 5.515835 19.908270 -0.178800 2.723300 -7.509400 -3.754180 -0.310169 4.881031 0.757054 -0.851399 -1.544244 4.943075 -0.251112 -1.733153 -8.479284 -3.804706 -13.493079 3.333829 -3.731259 13.938635 2.669000 -2.282700 10.244100 -7.170733 2.435418 -2.526629 -82.057311 -3.467344 24.202620 16.739402 -29.068796 -5.942251 -1.064566 -3.239244 2.047506 17.865823 20.103826 7.727400 -7.125000 0.000000 0.000000 -10.897000 54.232500 -2.495100 6.166696 -1.955780 -1.999920 80.753549 1.128470 6.717455 -11.560877 17.660587 -2.473241 0.815282 -0.844010 13.028517 -12.581567 10.975632 -2.774400 7.125000 0.000000 0.000000 9.504500 -18.163900 6.153300 
-51.453696 106.421406 40.984944 1.540434 12.747110 2.281311 -0.285948 2.144629 2.225495 -25.188118 -9.226518 2.099171 0.438701 7.106476 23.349043 3.097791 -12.609275 0.863457 0.091500 1.950900 5.370000 -1.323532 -1.852161 0.700686 6.798842 18.019329 -20.865595 0.143329 -6.591946 19.234234 -3.033760 11.990883 21.602705 -0.099500 -2.034200 5.600200 -4.027492 -0.740501 5.616408 0.731050 -1.494955 -1.850917 4.977665 -0.492126 -3.065389 -8.679429 -3.734992 -12.462248 3.181514 -3.643223 14.079922 2.658000 -2.297200 10.133300 -7.172846 2.453852 -2.599478 -82.291339 -1.952244 24.268231 16.918767 -29.299326 -6.056507 -1.228697 -3.102344 2.233999 19.133251 18.587864 7.802300 -7.125000 0.000000 0.000000 -8.806500 52.823200 -1.705800 6.059223 -1.946605 -2.090574 80.828481 0.096394 8.385076 -12.050096 18.360187 -2.690860 0.790969 -0.468574 11.417913 -11.712837 8.368858 -1.922700 7.125000 0.000000 0.000000 10.300000 -21.175700 5.979400 
-51.611376 106.422636 44.029602 0.783394 16.625315 2.429102 -0.170603 2.237344 2.185147 -24.241658 -11.916379 2.895792 0.874071 7.991080 25.971213 3.027822 -12.430444 1.345259 0.063600 1.626600 4.474700 -1.341607 -2.041406 0.757488 7.690005 18.141074 -18.298803 -0.125835 -6.834670 19.928075 -2.319362 8.343107 15.125837 -0.046900 1.398000 -3.844600 -3.342326 -1.103076 5.409149 0.851004 -1.925652 -1.833377 4.900181 -0.708521 -2.853692 -8.865432 -3.755265 -12.582424 3.118609 -3.598627 14.401425 2.682200 -2.311400 10.302700 -7.210107 2.493528 -2.569900 -82.460382 -1.941878 24.590106 16.282599 -28.470860 -5.635288 -1.235092 -3.194826 2.294639 19.093016 19.415053 8.093900 -7.125000 0.000000 0.000000 -9.191600 53.757900 -1.992300 6.030941 -1.962644 -2.126386 80.925651 -0.022594 9.845645 -12.436562 18.957138 -2.864714 0.897875 -0.564957 9.749875 -12.640558 9.653899 -2.416700 7.125000 0.000000 0.000000 9.506200 -19.734700 5.817900 
-51.619386 106.592640 46.994190 -0.472363 20.393318 2.555047 -0.019360 2.224891 2.050071 -22.790932 -14.821350 2.062817 1.726738 9.474808 30.568279 2.933536 -12.655353 3.081610 0.001300 0.232700 0.639300 -1.360993 -2.142252 0.875535 10.035933 14.728983 -17.089494 -0.139889 -6.709829 19.812694 -2.288952 9.032012 12.413471 -0.126100 2.289300 -6.305900 -1.911762 -1.105816 5.439057 0.989787 -1.840147 -1.929259 4.519316 -0.639409 -3.143007 -8.982517 -3.808352 -12.935185 2.874344 -3.569570 14.900246 2.606200 -2.354500 10.660000 -7.195526 2.527275 -2.606658 -82.716450 -1.126360 25.412604 16.092250 -28.211047 -5.511046 -1.144436 -3.295090 2.317462 18.389987 20.416967 8.103400 -7.125000 0.000000 0.000000 -10.457600 54.725500 -2.518900 6.005312 -1.969435 -2.194018 80.947190 -0.494499 10.924237 -12.803220 19.507403 -3.023617 1.039098 -0.609031 7.897298 -13.777804 10.514153 -2.888000 7.125000 0.000000 0.000000 8.589700 -18.741600 5.435600 
